<svg xmlns="http://www.w3.org/2000/svg" width="64" height="64" viewBox="0 0 64 64">
<filter id="ds" x="-30%" y="-30%" width="160%" height="160%"><feDropShadow dx="0" dy="1" stdDeviation="0.85" flood-color="#0b1220" flood-opacity="0.28"/></filter>
<g filter="url(#ds)"><path d="M 23.89 23 Q 24 20 27 20 L 37 20 Q 40 20 40.11 23 L 40.89 45 Q 41 48 38 48 L 26 48 Q 23 48 23.11 45 Z" fill="#166534" stroke="#001300" stroke-width="1.4" stroke-linejoin="round"/><line x1="25" y1="20" x2="39" y2="20" stroke="#001900" stroke-width="1.6"/><rect x="28" y="26" width="8" height="14" rx="2" ry="2" fill="#004110"/><rect x="19.76" y="19" width="5.4" height="10" rx="2.7" ry="2.7" fill="#15181d" fill-opacity="0.92"/><rect x="38.84" y="19" width="5.4" height="10" rx="2.7" ry="2.7" fill="#15181d" fill-opacity="0.92"/><rect x="19.04" y="39" width="5.4" height="10" rx="2.7" ry="2.7" fill="#15181d" fill-opacity="0.92"/><rect x="39.56" y="39" width="5.4" height="10" rx="2.7" ry="2.7" fill="#15181d" fill-opacity="0.92"/></g>
</svg>
