<svg xmlns="http://www.w3.org/2000/svg" width="64" height="64" viewBox="0 0 64 64">
<filter id="ds" x="-30%" y="-30%" width="160%" height="160%"><feDropShadow dx="0" dy="1" stdDeviation="0.85" flood-color="#0b1220" flood-opacity="0.28"/></filter>
<g filter="url(#ds)"><rect x="29.8" y="27" width="4.4" height="2" fill="#000027"/><path d="M 20.92 14.97 Q 21.5 10 26.5 10 L 37.5 10 Q 42.5 10 43.08 14.97 L 43.92 22.03 Q 44.5 27 39.5 27 L 24.5 27 Q 19.5 27 20.08 22.03 Z" fill="#0369a1" stroke="#00174f" stroke-width="1.4" stroke-linejoin="round"/><rect x="24.5" y="12.5" width="15" height="6" rx="3" ry="3" fill="#eaf4ff" fill-opacity="0.72"/><circle cx="21" cy="24" r="1.4" fill="#00002e"/><circle cx="43" cy="24" r="1.4" fill="#00002e"/><rect x="17.86" y="13.75" width="4.2" height="8.5" rx="2.1" ry="2.1" fill="#20242b" fill-opacity="0.92"/><rect x="41.94" y="13.75" width="4.2" height="8.5" rx="2.1" ry="2.1" fill="#20242b" fill-opacity="0.92"/><path d="M 19.5 30 Q 19.5 28 21.5 28 L 42.5 28 Q 44.5 28 44.5 30 L 44.5 56 Q 44.5 58 42.5 58 L 21.5 58 Q 19.5 58 19.5 56 Z" fill="#0d73ab" stroke="#00124a" stroke-width="1.4"/><rect x="16.7" y="36.1" width="4.4" height="9" rx="2.2" ry="2.2" fill="#20242b" fill-opacity="0.92"/><rect x="42.9" y="36.1" width="4.4" height="9" rx="2.2" ry="2.2" fill="#20242b" fill-opacity="0.92"/><rect x="16.7" y="47.5" width="4.4" height="9" rx="2.2" ry="2.2" fill="#20242b" fill-opacity="0.92"/><rect x="42.9" y="47.5" width="4.4" height="9" rx="2.2" ry="2.2" fill="#20242b" fill-opacity="0.92"/><line x1="23" y1="30" x2="23" y2="56" stroke="#003b73" stroke-width="0.6" stroke-opacity="0.55"/><line x1="27.5" y1="30" x2="27.5" y2="56" stroke="#003b73" stroke-width="0.6" stroke-opacity="0.55"/><line x1="32" y1="30" x2="32" y2="56" stroke="#003b73" stroke-width="0.6" stroke-opacity="0.55"/><line x1="36.5" y1="30" x2="36.5" y2="56" stroke="#003b73" stroke-width="0.6" stroke-opacity="0.55"/><line x1="41" y1="30" x2="41" y2="56" stroke="#003b73" stroke-width="0.6" stroke-opacity="0.55"/><rect x="20" y="29" width="3" height="3" fill="#000d45"/><rect x="41" y="29" width="3" height="3" fill="#000d45"/><rect x="20" y="54" width="3" height="3" fill="#000d45"/><rect x="41" y="54" width="3" height="3" fill="#000d45"/></g>
</svg>
