<svg xmlns="http://www.w3.org/2000/svg" width="64" height="64" viewBox="0 0 64 64">
<filter id="ds" x="-30%" y="-30%" width="160%" height="160%"><feDropShadow dx="0" dy="1" stdDeviation="0.85" flood-color="#0b1220" flood-opacity="0.28"/></filter>
<g filter="url(#ds)"><path d="M 21.84 13.96 Q 22.5 9 27.5 9 L 36.5 9 Q 41.5 9 42.16 13.96 L 42.84 19.04 Q 43.5 24 38.5 24 L 25.5 24 Q 20.5 24 21.16 19.04 Z" fill="#ca8a04" stroke="#783800" stroke-width="1.4" stroke-linejoin="round"/><rect x="24.5" y="11.5" width="15" height="6" rx="3" ry="3" fill="#eaf4ff" fill-opacity="0.72"/><circle cx="22" cy="21" r="1.4" fill="#571700"/><circle cx="42" cy="21" r="1.4" fill="#571700"/><rect x="18.73" y="13" width="4.2" height="8" rx="2.1" ry="2.1" fill="#20242b" fill-opacity="0.92"/><rect x="41.07" y="13" width="4.2" height="8" rx="2.1" ry="2.1" fill="#20242b" fill-opacity="0.92"/><path d="M 18.56 27 Q 18.5 25 20.5 25 L 43.5 25 Q 45.5 25 45.44 27 L 44.56 56 Q 44.5 58 42.5 58 L 21.5 58 Q 19.5 58 19.44 56 Z" fill="#d99913" stroke="#733300" stroke-width="1.5"/><line x1="20" y1="29" x2="44" y2="29" stroke="#884800" stroke-width="0.7" stroke-opacity="0.45"/><line x1="20" y1="33" x2="44" y2="33" stroke="#884800" stroke-width="0.7" stroke-opacity="0.45"/><line x1="20" y1="37" x2="44" y2="37" stroke="#884800" stroke-width="0.7" stroke-opacity="0.45"/><line x1="20" y1="41" x2="44" y2="41" stroke="#884800" stroke-width="0.7" stroke-opacity="0.45"/><line x1="20" y1="45" x2="44" y2="45" stroke="#884800" stroke-width="0.7" stroke-opacity="0.45"/><line x1="20" y1="49" x2="44" y2="49" stroke="#884800" stroke-width="0.7" stroke-opacity="0.45"/><line x1="20" y1="53" x2="44" y2="53" stroke="#884800" stroke-width="0.7" stroke-opacity="0.45"/><rect x="19" y="55" width="26" height="2" fill="#5f1f00"/><rect x="16.7" y="39.25" width="4.6" height="9.5" rx="2.3" ry="2.3" fill="#20242b" fill-opacity="0.92"/><rect x="42.7" y="39.25" width="4.6" height="9.5" rx="2.3" ry="2.3" fill="#20242b" fill-opacity="0.92"/><rect x="16.7" y="49.25" width="4.6" height="9.5" rx="2.3" ry="2.3" fill="#20242b" fill-opacity="0.92"/><rect x="42.7" y="49.25" width="4.6" height="9.5" rx="2.3" ry="2.3" fill="#20242b" fill-opacity="0.92"/></g>
</svg>
