<svg xmlns="http://www.w3.org/2000/svg" width="64" height="64" viewBox="0 0 64 64">
<filter id="ds" x="-30%" y="-30%" width="160%" height="160%"><feDropShadow dx="0" dy="1" stdDeviation="0.85" flood-color="#0b1220" flood-opacity="0.28"/></filter>
<g filter="url(#ds)"><rect x="29.8" y="27" width="4.4" height="3" fill="#3a0000"/><path d="M 20.92 14.97 Q 21.5 10 26.5 10 L 37.5 10 Q 42.5 10 43.08 14.97 L 43.92 22.03 Q 44.5 27 39.5 27 L 24.5 27 Q 19.5 27 20.08 22.03 Z" fill="#b45309" stroke="#620100" stroke-width="1.4" stroke-linejoin="round"/><rect x="24.5" y="12.5" width="15" height="6" rx="3" ry="3" fill="#eaf4ff" fill-opacity="0.72"/><circle cx="21" cy="24" r="1.4" fill="#410000"/><circle cx="43" cy="24" r="1.4" fill="#410000"/><rect x="17.86" y="13.75" width="4.2" height="8.5" rx="2.1" ry="2.1" fill="#20242b" fill-opacity="0.92"/><rect x="41.94" y="13.75" width="4.2" height="8.5" rx="2.1" ry="2.1" fill="#20242b" fill-opacity="0.92"/><path d="M 20 30.5 Q 20 29 21.5 29 L 42.5 29 Q 44 29 44 30.5 L 44 56.5 Q 44 58 42.5 58 L 21.5 58 Q 20 58 20 56.5 Z" fill="#8a6d4b" stroke="#3e2100" stroke-width="1.4"/><rect x="17.2" y="36.68" width="4.4" height="9" rx="2.2" ry="2.2" fill="#20242b" fill-opacity="0.92"/><rect x="42.4" y="36.68" width="4.4" height="9" rx="2.2" ry="2.2" fill="#20242b" fill-opacity="0.92"/><rect x="17.2" y="47.5" width="4.4" height="9" rx="2.2" ry="2.2" fill="#20242b" fill-opacity="0.92"/><rect x="42.4" y="47.5" width="4.4" height="9" rx="2.2" ry="2.2" fill="#20242b" fill-opacity="0.92"/><line x1="21.5" y1="32" x2="42.5" y2="32" stroke="#573a18" stroke-width="0.6" stroke-opacity="0.5"/><line x1="21.5" y1="36.5" x2="42.5" y2="36.5" stroke="#573a18" stroke-width="0.6" stroke-opacity="0.5"/><line x1="21.5" y1="41" x2="42.5" y2="41" stroke="#573a18" stroke-width="0.6" stroke-opacity="0.5"/><line x1="21.5" y1="45.5" x2="42.5" y2="45.5" stroke="#573a18" stroke-width="0.6" stroke-opacity="0.5"/><line x1="21.5" y1="50" x2="42.5" y2="50" stroke="#573a18" stroke-width="0.6" stroke-opacity="0.5"/><line x1="21.5" y1="54.5" x2="42.5" y2="54.5" stroke="#573a18" stroke-width="0.6" stroke-opacity="0.5"/><rect x="26" y="34" width="12" height="12" rx="1" ry="1" fill="#be5d13" stroke="#680700" stroke-width="0.9"/></g>
</svg>
