<svg xmlns="http://www.w3.org/2000/svg" width="64" height="64" viewBox="0 0 64 64">
<filter id="ds" x="-30%" y="-30%" width="160%" height="160%"><feDropShadow dx="0" dy="1" stdDeviation="0.85" flood-color="#0b1220" flood-opacity="0.28"/></filter>
<g filter="url(#ds)"><line x1="27.5" y1="8" x2="27.5" y2="24" stroke="#aa7300" stroke-width="2.6"/><line x1="36.5" y1="8" x2="36.5" y2="24" stroke="#aa7300" stroke-width="2.6"/><rect x="24" y="22" width="16" height="8" rx="1.5" ry="1.5" fill="#c48d00" stroke="#935c00" stroke-width="1.1"/><rect x="24.5" y="28" width="15" height="20" rx="3" ry="3" fill="#eab308" stroke="#935c00" stroke-width="1.4"/><rect x="26.5" y="30" width="11" height="9" rx="2" ry="2" fill="#eaf4ff" fill-opacity="0.6"/><rect x="26" y="40" width="12" height="5" fill="#b78000"/><rect x="21.8" y="29.75" width="4.4" height="6.5" rx="2.2" ry="2.2" fill="#20242b" fill-opacity="0.92"/><rect x="37.8" y="29.75" width="4.4" height="6.5" rx="2.2" ry="2.2" fill="#20242b" fill-opacity="0.92"/><rect x="23.6" y="43.5" width="4.8" height="7" rx="2.4" ry="2.4" fill="#20242b" fill-opacity="0.92"/><rect x="35.6" y="43.5" width="4.8" height="7" rx="2.4" ry="2.4" fill="#20242b" fill-opacity="0.92"/></g>
</svg>
